<?xml version="1.0" encoding="UTF-8" standalone="no"?>
<!-- Created with Inkscape (http://www.inkscape.org/) -->

<svg
   xmlns:dc="http://purl.org/dc/elements/1.1/"
   xmlns:cc="http://creativecommons.org/ns#"
   xmlns:rdf="http://www.w3.org/1999/02/22-rdf-syntax-ns#"
   xmlns:svg="http://www.w3.org/2000/svg"
   xmlns="http://www.w3.org/2000/svg"
   xmlns:sodipodi="http://sodipodi.sourceforge.net/DTD/sodipodi-0.dtd"
   xmlns:inkscape="http://www.inkscape.org/namespaces/inkscape"
   version="1.1"
   id="svg815"
   xml:space="preserve"
   width="1284"
   height="666.66669"
   viewBox="0 0 1284 666.66669"
   sodipodi:docname="logo.svg"
   inkscape:version="0.92.2 2405546, 2018-03-11"><metadata
     id="metadata821"><rdf:RDF><cc:Work
         rdf:about=""><dc:format>image/svg+xml</dc:format><dc:type
           rdf:resource="http://purl.org/dc/dcmitype/StillImage" /><dc:title></dc:title></cc:Work></rdf:RDF></metadata><defs
     id="defs819"><clipPath
       clipPathUnits="userSpaceOnUse"
       id="clipPath837"><path
         d="M 0,500 H 963 V 0 H 0 Z"
         id="path835"
         inkscape:connector-curvature="0" /></clipPath><clipPath
       clipPathUnits="userSpaceOnUse"
       id="clipPath885"><path
         d="M 52.103,119.245 H 326.884 V 378.871 H 52.103 Z"
         id="path883"
         inkscape:connector-curvature="0" /></clipPath></defs><sodipodi:namedview
     pagecolor="#ffffff"
     bordercolor="#666666"
     borderopacity="1"
     objecttolerance="10"
     gridtolerance="10"
     guidetolerance="10"
     inkscape:pageopacity="0"
     inkscape:pageshadow="2"
     inkscape:window-width="3836"
     inkscape:window-height="2156"
     id="namedview817"
     showgrid="false"
     inkscape:zoom="0.63648754"
     inkscape:cx="673.42245"
     inkscape:cy="333.33334"
     inkscape:window-x="1920"
     inkscape:window-y="0"
     inkscape:window-maximized="0"
     inkscape:current-layer="g823" /><g
     id="g823"
     inkscape:groupmode="layer"
     inkscape:label="logo_rectangle"
     transform="matrix(1.3333333,0,0,-1.3333333,0,666.66667)"><path
       d="M 0,93.972776 H 963 V 391.29795 H 0 Z"
       style="fill:#e84e3d;fill-opacity:1;fill-rule:nonzero;stroke:none;stroke-width:0.77113575"
       id="path825"
       inkscape:connector-curvature="0"
       inkscape:export-filename="/home/basie/eda/humanskills/images/logo.svg.png"
       inkscape:export-xdpi="96"
       inkscape:export-ydpi="96" /><g
       id="g827"
       transform="matrix(1,0,0,0.59465035,0,391.29795)"><path
         d="M 0,0 V -500 H 92.73 L 152.923,-255.557 92.103,0 Z"
         style="fill:#dededd;fill-opacity:1;fill-rule:nonzero;stroke:none"
         id="path829"
         inkscape:connector-curvature="0" /></g><g
       id="g831"
       transform="matrix(1.2821883,0,0,1.4594586,-165.62382,-114.64477)"
       inkscape:export-filename="/home/basie/eda/humanskills/images/logo.png"
       inkscape:export-xdpi="96"
       inkscape:export-ydpi="96"><g
         id="g833"
         clip-path="url(#clipPath837)"><g
           id="g839"
           transform="translate(572.2021,261.1719)"><path
             d="M 0,0 -5.312,15.648 -10.628,0 Z M 15.437,-17.632 H 8 c -1.563,0 -2.124,0.414 -2.682,2.118 l -1.983,5.593 h -17.36 l -1.987,-5.593 c -0.562,-1.704 -1.137,-2.118 -2.688,-2.118 h -7.437 c -1.558,0 -1.558,1.132 -1.209,1.972 l 15.725,42.435 c 0.565,1.495 1.346,2.195 2.906,2.195 h 6.796 c 1.557,0 2.268,-0.7 2.905,-2.195 L 16.648,-15.66 C 17,-16.5 17,-17.632 15.437,-17.632"
             style="fill:#000000;fill-opacity:1;fill-rule:nonzero;stroke:none"
             id="path841"
             inkscape:connector-curvature="0" /></g><g
           id="g843"
           transform="translate(610.1523,242.4687)"><path
             d="m 0,0 c -8.422,0 -18.971,4.882 -18.971,16.006 v 16.716 c 0,11.126 10.549,16.006 18.971,16.006 8.796,0 17.502,-4.46 18.425,-13.452 0,-1.704 -0.568,-2.056 -2.196,-2.056 H 9.433 c -1.489,0 -1.566,1.353 -2.129,2.203 C 5.816,37.76 3.837,38.806 0,38.806 c -4.67,0 -7.857,-2.613 -7.857,-7.073 V 17.004 c 0,-4.536 3.187,-7.091 7.857,-7.091 3.837,0 6.877,1.421 7.447,4.825 0.212,1.416 0.353,2.55 1.91,2.55 h 6.935 c 1.565,0 2.133,-0.704 2.133,-2.409 C 18.425,5.733 8.796,0 0,0"
             style="fill:#000000;fill-opacity:1;fill-rule:nonzero;stroke:none"
             id="path845"
             inkscape:connector-curvature="0" /></g><g
           id="g847"
           transform="translate(659.8086,261.1719)"><path
             d="M 0,0 -5.316,15.648 -10.621,0 Z M 15.441,-17.632 H 8.007 c -1.561,0 -2.12,0.414 -2.698,2.118 l -1.985,5.593 h -17.345 l -1.983,-5.593 c -0.57,-1.704 -1.136,-2.118 -2.691,-2.118 h -7.437 c -1.563,0 -1.563,1.132 -1.212,1.972 l 15.727,42.435 c 0.569,1.495 1.351,2.195 2.908,2.195 h 6.798 c 1.556,0 2.266,-0.7 2.905,-2.195 L 16.647,-15.66 c 0.356,-0.84 0.356,-1.972 -1.206,-1.972"
             style="fill:#000000;fill-opacity:1;fill-rule:nonzero;stroke:none"
             id="path849"
             inkscape:connector-curvature="0" /></g><g
           id="g851"
           transform="translate(708.9629,273.2148)"><path
             d="m 0,0 c 0,4.459 -3.258,7.073 -7.933,7.073 h -6.794 V -19.84 h 6.794 c 4.675,0 7.933,2.554 7.933,7.094 z m 11.118,0.987 v -14.729 c 0,-11.132 -10.615,-15.933 -19.051,-15.933 h -15.864 c -1.625,0 -2.053,0.777 -2.053,2.045 v 42.509 c 0,1.272 0.428,2.048 2.053,2.048 h 15.864 c 8.436,0 19.051,-4.886 19.051,-15.94"
             style="fill:#000000;fill-opacity:1;fill-rule:nonzero;stroke:none"
             id="path853"
             inkscape:connector-curvature="0" /></g><g
           id="g855"
           transform="translate(763.9268,251.4004)"><path
             d="M 0,0 V -5.815 C 0,-7.082 -0.436,-7.86 -2.062,-7.86 h -31.73 c -1.629,0 -2.048,0.778 -2.048,2.045 v 42.506 c 0,1.275 0.419,2.05 2.048,2.05 h 30.53 c 1.634,0 2.052,-0.775 2.052,-2.05 v -5.89 c 0,-1.276 -0.418,-2.045 -2.052,-2.045 h -21.384 v -7.72 h 18.975 c 1.629,0 2.052,-0.778 2.052,-2.057 v -5.525 c 0,-1.277 -0.423,-2.067 -2.052,-2.067 H -24.646 V 2.048 H -2.062 C -0.436,2.048 0,1.27 0,0"
             style="fill:#000000;fill-opacity:1;fill-rule:nonzero;stroke:none"
             id="path857"
             inkscape:connector-curvature="0" /></g><g
           id="g859"
           transform="translate(816.6914,288.1562)"><path
             d="m 0,0 v -42.571 c 0,-1.631 -0.789,-2.045 -2.047,-2.045 h -6.804 c -1.273,0 -2.053,0.414 -2.053,2.045 v 24.015 l -7.092,-12.393 c -0.356,-0.572 -0.994,-1.494 -2.045,-1.494 h -3.543 c -1.069,0 -1.634,0.922 -1.992,1.494 l -7.153,12.393 v -24.015 c 0,-1.631 -0.78,-2.045 -2.058,-2.045 h -7.008 c -1.267,0 -2.044,0.414 -2.044,2.045 V 0 c 0,1.285 0.417,2.048 2.044,2.048 h 7.008 c 2.414,0 2.7,-1.554 3.27,-2.404 l 9.708,-17.42 9.766,17.42 c 0.503,0.85 0.851,2.404 3.192,2.404 h 6.804 C -0.431,2.048 0,1.285 0,0"
             style="fill:#000000;fill-opacity:1;fill-rule:nonzero;stroke:none"
             id="path861"
             inkscape:connector-curvature="0" /></g><g
           id="g863"
           transform="translate(861.3145,288.1562)"><path
             d="m 0,0 -14.597,-27.122 v -15.449 c 0,-1.631 -0.777,-2.045 -2.053,-2.045 h -7.08 c -1.348,0 -2.061,0.414 -2.061,2.045 v 15.449 L -40.947,0 c -0.353,0.78 -0.215,1.985 1.129,1.985 h 8.151 c 1.629,0 2.337,-0.218 3.327,-2.129 l 8.285,-15.229 8.015,15.229 c 0.921,1.911 1.618,2.129 3.254,2.129 h 7.652 C 0.215,1.985 0.354,0.78 0,0"
             style="fill:#000000;fill-opacity:1;fill-rule:nonzero;stroke:none"
             id="path865"
             inkscape:connector-curvature="0" /></g><g
           id="g867"
           transform="translate(422.5459,273.4312)"><path
             d="m 0,0 c 0,4.597 -3.361,7.302 -8.18,7.302 h -7.015 v -27.757 h 7.015 c 4.819,0 8.18,2.634 8.18,7.303 z m 11.466,1.021 v -15.194 c 0,-11.466 -10.957,-16.432 -19.646,-16.432 h -16.362 c -1.679,0 -2.117,0.807 -2.117,2.12 v 43.817 c 0,1.321 0.438,2.124 2.117,2.124 H -8.18 c 8.689,0 19.646,-5.041 19.646,-16.435"
             style="fill:#ffffff;fill-opacity:1;fill-rule:nonzero;stroke:none"
             id="path869"
             inkscape:connector-curvature="0" /></g><g
           id="g871"
           transform="translate(478.7485,250.9502)"><path
             d="m 0,0 v -5.998 c 0,-1.318 -0.44,-2.126 -2.121,-2.126 h -32.781 c -1.684,0 -2.123,0.808 -2.123,2.126 v 43.897 c 0,1.324 0.439,2.128 2.123,2.128 h 31.533 c 1.69,0 2.125,-0.804 2.125,-2.128 v -6.072 c 0,-1.314 -0.435,-2.119 -2.125,-2.119 h -22.094 v -7.976 h 19.61 c 1.681,0 2.122,-0.808 2.122,-2.126 v -5.704 c 0,-1.319 -0.441,-2.124 -2.122,-2.124 h -19.61 V 2.123 H -2.121 C -0.44,2.123 0,1.316 0,0"
             style="fill:#ffffff;fill-opacity:1;fill-rule:nonzero;stroke:none"
             id="path873"
             inkscape:connector-curvature="0" /></g><g
           id="g875"
           transform="translate(528.5898,288.7676)"><path
             d="m 0,0 -15.637,-43.752 c -0.868,-1.896 -1.384,-2.189 -2.992,-2.189 h -7.012 c -1.605,0 -2.118,0.293 -2.993,2.189 L -44.337,0 c -0.366,0.953 -0.075,2.125 1.311,2.125 h 8.11 c 1.896,0 2.409,-0.587 2.992,-2.341 l 9.937,-30.241 9.86,30.241 c 0.582,1.754 1.098,2.341 3.067,2.341 h 7.742 C 0.072,2.125 0.365,0.953 0,0"
             style="fill:#ffffff;fill-opacity:1;fill-rule:nonzero;stroke:none"
             id="path877"
             inkscape:connector-curvature="0" /></g></g></g><g
       id="g879"
       transform="matrix(0.92173851,0,0,0.89561189,-19.489154,15.688201)"><g
         id="g881"
         clip-path="url(#clipPath885)"><g
           id="g887"
           transform="translate(184.0093,254.0254)"><path
             d="m 0,0 c 0.205,-1.05 0.205,-1.924 -0.041,-2.783 -0.245,-0.805 -0.614,-1.542 -1.173,-2.156 -0.519,-0.627 -1.187,-1.146 -1.951,-1.555 -0.805,-0.423 -1.651,-0.709 -2.497,-0.914 -0.791,-0.164 -1.582,-0.246 -2.305,-0.218 -0.71,0.054 -1.365,0.218 -1.965,0.477 -0.559,0.3 -1.064,0.655 -1.446,1.187 -0.436,0.505 -0.737,1.119 -0.9,1.883 -0.246,1.078 -0.246,2.033 -0.028,2.838 0.219,0.832 0.587,1.582 1.105,2.182 0.519,0.601 1.119,1.133 1.924,1.501 0.764,0.423 1.596,0.737 2.51,0.914 0.778,0.164 1.528,0.246 2.265,0.246 C -3.779,3.547 -3.097,3.438 -2.497,3.138 -1.91,2.865 -1.351,2.497 -0.9,1.992 -0.505,1.446 -0.191,0.778 0,0"
             style="fill:#ffffff;fill-opacity:1;fill-rule:nonzero;stroke:none"
             id="path889"
             inkscape:connector-curvature="0" /></g><g
           id="g891"
           transform="translate(283.5869,277.9951)"><path
             d="m 0,0 v -40.341 c -0.041,-1.405 0,-2.701 0.068,-3.888 0.027,-1.201 0.164,-2.333 0.396,-3.356 0.204,-1.051 0.627,-1.842 1.146,-2.306 0.559,-0.477 1.269,-0.655 2.06,-0.463 0.75,0.149 1.419,0.463 1.964,0.886 0.642,0.396 1.269,0.983 1.951,1.705 l 2.265,-2.101 c -0.478,-0.709 -0.955,-1.473 -1.555,-2.21 -0.587,-0.818 -1.296,-1.5 -2.129,-2.183 -0.804,-0.695 -1.746,-1.255 -2.783,-1.814 -1.036,-0.519 -2.251,-0.9 -3.547,-1.2 -2.824,-0.586 -5.061,-0.369 -6.821,0.641 -1.746,1.009 -2.906,2.66 -3.397,5.062 -0.396,2.073 -0.628,5.06 -0.628,8.949 v 29.754 1.023 0.983 c 0,0.286 0,0.572 -0.054,0.75 -0.027,0.245 -0.027,0.368 -0.055,0.491 -0.109,0.668 -0.3,1.201 -0.559,1.542 -0.191,0.395 -0.491,0.682 -0.846,0.804 -0.355,0.123 -0.805,0.232 -1.31,0.191 -0.518,-0.068 -1.077,-0.136 -1.787,-0.286 l -1.651,-0.382 v 4.065 z"
             style="fill:#ffffff;fill-opacity:1;fill-rule:nonzero;stroke:none"
             id="path893"
             inkscape:connector-curvature="0" /></g><g
           id="g895"
           transform="translate(96.4922,251.6377)"><path
             d="m 0,0 c -0.041,1.801 0,3.643 0.259,5.525 0.246,1.924 0.655,3.67 1.173,5.294 0.601,1.596 1.297,2.919 2.197,4.065 0.846,1.146 1.883,1.815 3.083,2.074 1.132,0.232 2.087,0 2.892,-0.71 0.792,-0.709 1.351,-1.801 1.678,-3.301 C 11.596,11.405 11.528,9.945 11.16,8.554 10.778,7.203 10.096,5.935 9.154,4.802 8.172,3.697 7.026,2.701 5.539,1.91 4.079,1.091 2.483,0.518 0.668,0.123 Z"
             style="fill:#000000;fill-opacity:1;fill-rule:nonzero;stroke:none"
             id="path897"
             inkscape:connector-curvature="0" /></g><g
           id="g899"
           transform="translate(183.2046,241.1738)"><path
             d="m 0,0 -0.082,-24.789 c 0,-1.391 0.014,-2.728 0.109,-3.888 0.041,-1.214 0.164,-2.333 0.369,-3.342 0.218,-1.064 0.614,-1.828 1.173,-2.319 0.587,-0.464 1.255,-0.641 2.033,-0.464 0.764,0.163 1.446,0.45 2.019,0.832 0.586,0.464 1.2,1.037 1.923,1.746 l 2.251,-2.114 c -0.436,-0.71 -0.941,-1.433 -1.568,-2.224 -0.614,-0.737 -1.337,-1.474 -2.142,-2.168 -0.846,-0.67 -1.747,-1.256 -2.783,-1.775 -1.024,-0.532 -2.211,-0.914 -3.548,-1.214 -2.783,-0.587 -5.061,-0.368 -6.821,0.641 -1.732,0.996 -2.878,2.674 -3.37,5.034 -0.218,1.023 -0.354,2.319 -0.504,3.82 -0.123,1.501 -0.137,3.206 -0.137,5.13 v 14.229 0.996 c -0.041,0.341 -0.068,0.641 -0.068,0.982 -0.014,0.287 -0.041,0.56 -0.041,0.778 0,0.218 -0.068,0.368 -0.082,0.464 -0.123,0.682 -0.341,1.2 -0.559,1.541 -0.218,0.396 -0.491,0.655 -0.846,0.805 -0.355,0.178 -0.805,0.232 -1.296,0.178 -0.491,-0.027 -1.064,-0.123 -1.76,-0.273 l -1.46,-0.341 v 4.079 z"
             style="fill:#ffffff;fill-opacity:1;fill-rule:nonzero;stroke:none"
             id="path901"
             inkscape:connector-curvature="0" /></g><g
           id="g903"
           transform="translate(206.8062,235.7305)"><path
             d="M 0,0 2.633,-0.396 C 1.282,-4.775 0.641,-10.737 0.573,-17.135 l -0.136,-13.192 -10.915,-2.361 v 30.683 c -0.013,0.45 -0.013,0.982 -0.04,1.678 -0.014,0.682 -0.11,1.268 -0.232,1.8 -0.191,0.928 -0.601,1.515 -1.283,1.76 -0.682,0.273 -1.705,0.273 -3.069,-0.027 l -1.487,-0.341 -0.014,4.079 16.33,3.465 L 0,0.055 Z"
             style="fill:#ffffff;fill-opacity:1;fill-rule:nonzero;stroke:none"
             id="path905"
             inkscape:connector-curvature="0" /></g><g
           id="g907"
           transform="translate(246.0835,220.3828)"><path
             d="m 0,0 c 0.941,1.173 1.774,2.619 2.442,4.352 0.655,1.733 1.214,3.615 1.61,5.674 0.368,2.075 0.573,4.135 0.573,6.195 V 28.909 C 3.997,29.481 3.247,29.836 2.36,30.014 1.405,30.123 0.491,30.123 -0.45,29.932 -1.869,29.645 -3.083,28.977 -4.093,27.995 -5.089,27.012 -5.948,25.798 -6.63,24.379 -7.326,22.92 -7.858,21.323 -8.24,19.591 -8.622,17.898 -8.881,16.152 -9.031,14.352 -9.154,12.564 -9.154,10.805 -9.059,9.127 c 0.096,-1.692 0.314,-3.192 0.601,-4.584 0.259,-1.419 0.6,-2.551 1.036,-3.493 0.382,-0.886 0.792,-1.596 1.269,-2.1 0.478,-0.478 0.982,-0.819 1.474,-0.983 0.573,-0.136 1.146,-0.151 1.678,-0.069 1.05,0.247 2.073,0.97 3.001,2.102 m 5.757,4.761 c 0,0 -0.914,-4.911 -4.352,-9.127 C 0.45,-5.472 -0.6,-6.412 -1.869,-7.162 -3.083,-7.885 -4.57,-8.486 -6.344,-8.854 c -1.705,-0.369 -3.315,-0.369 -4.734,0.068 -1.46,0.395 -2.715,1.078 -3.847,2.087 -1.105,0.996 -2.019,2.292 -2.797,3.834 -0.818,1.542 -1.405,3.206 -1.773,5.142 -0.41,1.898 -0.614,3.93 -0.614,6.126 0,2.184 0.218,4.366 0.709,6.59 0.45,2.169 1.078,4.365 2.006,6.467 0.9,2.087 2.06,4.011 3.451,5.757 1.405,1.746 3.043,3.206 4.98,4.502 1.882,1.242 4.065,2.156 6.507,2.66 0.942,0.205 1.924,0.341 2.947,0.396 1.01,0.041 1.992,0.041 2.961,0 0.914,-0.055 1.855,-0.136 2.674,-0.273 0.845,-0.123 2.21,-0.518 2.21,-0.518 3.315,3.151 7.312,3.52 7.312,3.52 V 13.588 c -0.041,-0.438 -0.041,-0.996 -0.041,-1.664 0,-0.682 0,-1.46 0.055,-2.224 0.013,-0.778 0.041,-1.555 0.136,-2.237 0.014,-0.737 0.109,-1.324 0.232,-1.816 0.218,-1.186 0.655,-2.073 1.228,-2.55 0.627,-0.533 1.269,-0.682 2.06,-0.533 0.682,0.165 1.296,0.451 1.842,0.874 0.614,0.422 1.2,0.941 1.855,1.528 L 25.239,2.387 C 24.707,1.76 24.12,1.119 23.438,0.437 22.797,-0.246 21.992,-0.888 21.16,-1.487 20.273,-2.128 19.318,-2.715 18.267,-3.206 17.19,-3.697 16.03,-4.106 14.693,-4.366 12.51,-4.843 10.709,-4.707 9.222,-3.997 7.694,-3.288 6.739,-1.979 6.344,-0.082 6.18,0.654 6.044,1.419 5.989,2.156 5.921,2.892 5.757,4.761 5.757,4.761"
             style="fill:#ffffff;fill-opacity:1;fill-rule:nonzero;stroke:none"
             id="path909"
             inkscape:connector-curvature="0" /></g><g
           id="g911"
           transform="translate(128.1294,219.9053)"><path
             d="M 0,0 C -0.027,0.327 -0.027,0.655 -0.027,0.969 -0.082,1.255 -0.096,1.528 -0.096,1.746 -0.123,1.965 -0.15,2.128 -0.15,2.21 -0.314,2.892 -0.491,3.411 -0.709,3.779 -0.955,4.175 -1.241,4.434 -1.596,4.598 -1.937,4.761 -2.374,4.802 -2.892,4.774 -3.37,4.761 -3.97,4.651 -4.652,4.516 L -6.126,4.12 v 4.106 l 15.812,3.357 0.45,-10.082 c 0.546,1.705 1.092,3.301 1.665,4.788 0.627,1.445 1.378,2.77 2.237,3.916 0.86,1.173 1.937,2.128 3.165,2.945 1.255,0.792 2.756,1.393 4.557,1.775 1.555,0.327 3.097,0.355 4.516,0.054 1.432,-0.3 2.701,-0.914 3.861,-1.829 1.186,-0.94 2.141,-2.14 3.028,-3.696 0.832,-1.515 1.446,-3.356 1.937,-5.539 0.341,-1.746 0.546,-3.684 0.546,-5.784 0.027,-2.128 -0.177,-4.284 -0.573,-6.508 -0.382,-2.196 -1.037,-4.365 -1.896,-6.507 -0.846,-2.169 -1.924,-4.135 -3.315,-5.935 -1.365,-1.787 -3.015,-3.328 -4.898,-4.624 -1.896,-1.325 -4.134,-2.265 -6.589,-2.785 -1.474,-0.299 -2.893,-0.449 -4.23,-0.421 -1.323,0.027 -2.373,0.245 -3.41,0.586 v -7.258 -1.023 c 0,-0.327 0.041,-0.668 0.068,-0.982 0.014,-0.315 0.041,-0.546 0.041,-0.805 0.027,-0.219 0.054,-0.368 0.109,-0.45 0.096,-0.696 0.273,-1.214 0.491,-1.583 0.246,-0.368 0.559,-0.601 0.901,-0.777 0.354,-0.137 0.777,-0.219 1.296,-0.164 0.45,0.027 1.841,0.259 1.841,0.259 v -3.179 L 0,-47.299 V -1.01 C 0.027,-0.683 0,-0.368 0,0 m 10.737,-9.113 v -13.684 c 0.232,-0.15 0.832,-0.327 1.268,-0.518 0.396,-0.15 0.833,-0.314 1.324,-0.382 0.505,-0.11 1.009,-0.15 1.541,-0.15 0.614,-0.055 1.146,0 1.706,0.136 1.323,0.273 2.442,0.887 3.451,1.815 0.942,0.996 1.76,2.101 2.429,3.505 0.641,1.406 1.173,2.92 1.541,4.612 0.41,1.664 0.669,3.397 0.792,5.143 0.163,1.76 0.163,3.465 0.068,5.144 -0.109,1.664 -0.328,3.206 -0.573,4.596 -0.232,0.97 -0.478,1.938 -0.805,2.852 -0.355,0.9 -0.737,1.719 -1.201,2.388 -0.423,0.668 -0.955,1.173 -1.541,1.541 -0.628,0.314 -1.296,0.369 -2.019,0.26 C 16.467,7.831 10.737,2.237 10.737,-9.113"
             style="fill:#ffffff;fill-opacity:1;fill-rule:nonzero;stroke:none"
             id="path913"
             inkscape:connector-curvature="0" /></g><g
           id="g915"
           transform="translate(89.7666,191.0371)"><path
             d="m 0,0 c -0.259,-0.846 -0.259,-1.883 -0.068,-3.015 0.259,-1.282 0.859,-2.36 1.705,-3.178 0.846,-0.873 1.965,-1.529 3.274,-1.965 1.337,-0.449 2.879,-0.669 4.652,-0.669 1.774,0 3.711,0.22 5.771,0.669 2.906,0.655 5.389,1.46 7.463,2.511 2.073,1.049 3.738,2.264 5.007,3.669 1.255,1.419 2.087,3.001 2.483,4.693 0.45,1.761 0.45,3.63 0,5.594 -0.26,1.323 -0.723,2.538 -1.31,3.574 -0.614,1.023 -1.337,1.91 -2.278,2.716 -0.942,0.803 -2.074,1.418 -3.384,2.005 -1.296,0.573 -2.797,1.009 -4.502,1.391 -1.541,0.355 -2.892,0.683 -4.052,0.995 -1.132,0.26 -2.06,0.601 -2.878,0.969 -0.792,0.396 -1.405,0.832 -1.856,1.364 -0.395,0.532 -0.723,1.215 -0.914,2.006 -0.095,0.709 -0.095,1.419 0.041,2.074 0.15,0.696 0.409,1.337 0.846,1.896 0.45,0.587 1.01,1.064 1.664,1.501 0.723,0.464 1.542,0.777 2.483,0.969 1.024,0.217 1.965,0.136 2.77,-0.192 0.818,-0.382 1.541,-0.914 2.169,-1.596 0.6,-0.737 1.105,-1.542 1.473,-2.497 0.41,-0.955 0.71,-1.896 0.901,-2.892 2.592,0.559 4.556,1.42 5.839,2.62 1.296,1.215 1.746,2.769 1.323,4.693 -0.164,0.901 -0.614,1.719 -1.214,2.455 -0.655,0.738 -1.542,1.31 -2.729,1.678 -1.173,0.438 -2.66,0.669 -4.406,0.683 -1.815,0.027 -3.861,-0.219 -6.33,-0.737 C 11.419,33.465 9.209,32.647 7.258,31.705 5.389,30.737 3.82,29.618 2.619,28.295 1.405,26.999 0.559,25.525 0.109,23.956 -0.355,22.374 -0.382,20.709 -0.014,18.881 0.273,17.463 0.791,16.235 1.432,15.171 2.128,14.135 2.974,13.247 3.97,12.47 4.966,11.692 6.126,11.052 7.408,10.546 8.704,10.027 10.123,9.591 11.664,9.195 13.274,8.827 14.611,8.458 15.757,8.146 16.903,7.831 17.858,7.463 18.636,7.067 19.454,6.63 20.082,6.112 20.518,5.554 20.955,4.966 21.269,4.284 21.433,3.452 21.624,2.565 21.624,1.761 21.419,0.982 21.214,0.246 20.846,-0.437 20.3,-1.022 c -0.491,-0.615 -1.159,-1.12 -1.937,-1.542 -0.819,-0.41 -1.719,-0.75 -2.701,-0.956 -1.31,-0.314 -2.483,-0.273 -3.52,0.096 -1.023,0.327 -1.896,0.886 -2.633,1.692 C 8.731,-0.955 8.09,0.027 7.544,1.16 7.067,2.319 6.685,3.521 6.385,4.844 5.457,4.625 4.475,4.325 3.656,3.889 2.742,3.452 2.005,2.92 1.405,2.319 0.791,1.638 0.314,0.9 0,0 m 49.1,0.806 c 1.037,-0.342 2.087,-0.56 3.41,-0.587 1.337,-0.028 2.756,0.122 4.23,0.423 2.455,0.518 4.693,1.46 6.589,2.782 1.883,1.297 3.533,2.839 4.898,4.625 1.391,1.802 2.469,3.765 3.315,5.935 0.859,2.142 1.514,4.311 1.896,6.507 0.396,2.224 0.6,4.379 0.573,6.508 0,2.102 -0.205,4.038 -0.546,5.784 -0.491,2.183 -1.105,4.026 -1.937,5.539 -0.887,1.555 -1.842,2.756 -3.029,3.698 -1.159,0.914 -2.428,1.527 -3.86,1.828 -1.419,0.299 -2.961,0.272 -4.516,-0.055 -1.801,-0.382 -3.302,-0.982 -4.557,-1.773 -1.228,-0.819 -2.305,-1.774 -3.165,-2.948 -0.859,-1.145 -1.61,-2.468 -2.237,-3.915 -0.573,-1.487 -1.119,-3.083 -1.665,-4.789 L 48.049,40.45 32.237,37.095 v -4.107 l 1.474,0.395 c 0.682,0.138 1.282,0.246 1.76,0.261 0.518,0.026 0.955,-0.015 1.296,-0.179 0.355,-0.162 0.641,-0.423 0.887,-0.818 0.218,-0.369 0.395,-0.886 0.559,-1.569 0,-0.082 0.027,-0.246 0.054,-0.464 0,-0.218 0.014,-0.491 0.069,-0.778 0,-0.313 0,-0.641 0.027,-0.968 0,-0.369 0.027,-0.681 0,-1.01 v -46.289 l 15.484,3.275 v 3.178 c 0,0 -1.391,-0.232 -1.841,-0.258 -0.519,-0.056 -0.942,0.026 -1.296,0.163 -0.342,0.177 -0.655,0.409 -0.901,0.777 -0.218,0.368 -0.396,0.887 -0.491,1.582 -0.055,0.082 -0.082,0.233 -0.109,0.451 0,0.259 -0.027,0.492 -0.041,0.805 -0.027,0.313 -0.068,0.654 -0.068,0.982 v 1.023 z m 6.944,89.685 C 50.246,87.517 47.544,80.3 47.544,80.3 L 47.122,88.349 30.6,84.871 v -4.079 l 1.501,0.313 c 0.669,0.15 1.296,0.232 1.787,0.287 0.478,0.027 0.914,-0.055 1.214,-0.178 0.369,-0.177 0.683,-0.422 0.928,-0.791 0.232,-0.368 0.396,-0.887 0.532,-1.569 0.014,-0.095 0.041,-0.245 0.068,-0.491 0.028,-0.191 0.028,-0.45 0.055,-0.778 0,-0.286 0.027,-0.613 0.027,-0.955 0,-0.368 0.041,-0.668 0,-1.009 V 45.239 l 10.873,2.32 v 18.103 c 0,6.153 1.406,10.505 2.838,13.329 1.105,2.21 2.224,3.492 2.729,3.983 0.723,0.682 1.473,1.174 2.278,1.351 0.682,0.109 1.2,0.109 1.651,-0.068 0.436,-0.178 0.818,-0.437 1.091,-0.792 0.341,-0.354 0.6,-0.777 0.778,-1.296 0.163,-0.45 0.3,-0.914 0.45,-1.377 0.068,-0.614 0.191,-1.324 0.191,-2.061 0.082,-0.777 0.095,-1.541 0.123,-2.319 0,-0.764 0.054,-1.541 0.054,-2.264 v -1.815 l 0.041,-6.044 c 0,-3.86 0.218,-6.848 0.614,-8.949 0.505,-2.347 1.651,-4.011 3.397,-5.048 1.746,-0.996 4.011,-1.214 6.821,-0.6 1.31,0.246 2.524,0.668 3.561,1.201 1.023,0.531 1.965,1.132 2.797,1.788 0.818,0.681 1.528,1.363 2.128,2.169 l -1.76,2.918 c -0.191,-0.177 -0.423,-0.327 -0.627,-0.45 -0.573,-0.437 -1.201,-0.75 -1.992,-0.9 -0.832,-0.164 -1.501,0 -2.06,0.463 -0.532,0.478 -1.146,1.297 -1.364,2.348 -0.219,1.022 -0.41,2.277 -0.423,3.464 -0.069,1.187 -0.11,2.497 -0.069,3.888 l -0.041,8.159 v 2.114 c 0,0.764 0,1.501 -0.027,2.238 -0.013,0.764 -0.068,1.459 -0.123,2.182 -0.041,0.723 -0.15,1.406 -0.3,2.006 -0.218,1.105 -0.559,2.155 -1.078,3.124 -0.504,0.928 -1.146,1.733 -1.937,2.347 -0.805,0.627 -1.773,1.064 -2.933,1.296 -1.173,0.245 -2.524,0.191 -4.011,-0.123 -1.61,-0.341 -3.042,-0.832 -4.338,-1.433 m 86.33,-33.928 c -1.391,-1.747 -2.551,-3.67 -3.451,-5.757 -0.928,-2.102 -1.556,-4.298 -2.006,-6.468 -0.491,-2.223 -0.709,-4.405 -0.709,-6.589 0,-2.195 0.204,-4.228 0.614,-6.125 0.368,-1.937 0.955,-3.602 1.773,-5.144 0.778,-1.541 1.692,-2.836 2.797,-3.833 1.132,-1.009 2.387,-1.692 3.847,-2.087 1.419,-0.437 3.029,-0.437 4.734,-0.069 1.774,0.369 3.261,0.969 4.475,1.693 1.269,0.75 2.319,1.691 3.274,2.796 3.438,4.215 4.352,9.127 4.352,9.127 0,0 0.164,-1.87 0.232,-2.606 0.055,-0.736 0.191,-1.501 0.355,-2.237 0.395,-1.897 1.35,-3.206 2.878,-3.915 1.487,-0.709 3.288,-0.847 5.471,-0.369 1.337,0.259 2.497,0.668 3.574,1.16 1.051,0.49 2.006,1.077 2.893,1.718 0.832,0.6 1.637,1.243 2.278,1.924 0.682,0.682 1.269,1.323 1.801,1.951 l -2.224,2.579 c -0.655,-0.586 -1.242,-1.106 -1.855,-1.529 -0.546,-0.423 -1.16,-0.709 -1.842,-0.873 -0.791,-0.149 -1.433,0 -2.06,0.532 -0.573,0.478 -1.01,1.365 -1.228,2.551 -0.123,0.491 -0.218,1.078 -0.232,1.816 -0.095,0.681 -0.123,1.459 -0.136,2.236 -0.055,0.765 -0.055,1.542 -0.055,2.225 0,0.668 0,1.227 0.041,1.664 v 23.915 c 0,0 -3.997,-0.369 -7.312,-3.52 0,0 -1.365,0.396 -2.211,0.518 -0.818,0.137 -1.759,0.219 -2.674,0.273 -0.968,0.041 -1.95,0.041 -2.96,0 -1.023,-0.054 -2.005,-0.191 -2.947,-0.395 -2.442,-0.505 -4.625,-1.419 -6.507,-2.661 -1.938,-1.296 -3.575,-2.755 -4.98,-4.501 M -35.58,38.322 C -48.158,107.231 -2.483,173.261 66.426,185.867 131.61,197.749 194.011,154.571 205.88,89.509 l 28.909,6.112 C 248.855,18.418 197.749,-55.524 120.546,-69.591 47.654,-82.892 -22.265,-34.557 -35.58,38.322 m 63.834,13.234 c -0.123,0.628 -0.341,1.159 -0.614,1.706 -0.3,0.517 -0.587,0.926 -0.941,1.24 -0.41,-0.832 -0.833,-1.731 -1.433,-2.564 -0.559,-0.86 -1.241,-1.665 -2.074,-2.402 -0.75,-0.776 -1.637,-1.405 -2.66,-1.977 -0.982,-0.587 -2.074,-0.97 -3.247,-1.242 -2.646,-0.56 -4.788,-0.205 -6.439,1.023 -1.583,1.269 -2.701,3.302 -3.302,6.139 -0.109,0.423 -0.204,0.859 -0.286,1.365 -0.068,0.49 -0.109,0.995 -0.177,1.445 0.463,0.069 0.914,0.123 1.418,0.26 0.491,0.081 0.914,0.178 1.324,0.286 3.11,0.628 5.907,1.651 8.39,3.029 2.483,1.365 4.502,2.907 6.166,4.693 1.61,1.787 2.729,3.683 3.438,5.73 0.696,2.019 0.901,4.052 0.505,6.002 -0.614,2.715 -1.978,4.639 -4.216,5.758 -2.21,1.091 -5.075,1.268 -8.526,0.545 C 12.92,82.047 10.491,81.133 8.39,79.918 6.33,78.663 4.461,77.217 2.947,75.553 1.405,73.888 0.109,72.033 -0.941,70.027 c -1.01,-1.978 -1.788,-4.024 -2.347,-6.098 -0.518,-2.073 -0.832,-4.161 -0.873,-6.247 -0.082,-2.102 0.082,-4.012 0.45,-5.867 0.546,-2.524 1.419,-4.625 2.647,-6.358 1.282,-1.691 2.797,-3.028 4.516,-3.982 1.732,-0.888 3.629,-1.489 5.757,-1.693 2.073,-0.191 4.229,-0.068 6.453,0.437 2.483,0.491 4.543,1.227 6.248,2.155 1.692,0.914 3.056,1.883 4.038,2.96 0.982,1.078 1.692,2.156 2.033,3.262 0.355,1.063 0.437,2.046 0.273,2.96 M 193.82,46.617 v 40.341 l -17.271,-3.684 v -4.065 l 1.651,0.382 c 0.709,0.15 1.268,0.218 1.787,0.286 0.505,0.041 0.955,-0.068 1.31,-0.19 0.354,-0.123 0.654,-0.41 0.845,-0.805 0.26,-0.342 0.451,-0.874 0.56,-1.542 0.027,-0.123 0.027,-0.246 0.054,-0.491 0.055,-0.178 0.055,-0.464 0.055,-0.751 V 75.116 74.093 44.338 c 0,-3.888 0.232,-6.875 0.627,-8.948 0.492,-2.402 1.651,-4.053 3.397,-5.063 1.76,-1.009 3.998,-1.226 6.822,-0.64 1.296,0.299 2.51,0.681 3.547,1.201 1.037,0.558 1.978,1.118 2.783,1.813 0.832,0.682 1.541,1.365 2.128,2.184 0.6,0.736 1.078,1.501 1.555,2.21 l -2.264,2.1 c -0.682,-0.722 -1.31,-1.309 -1.951,-1.705 -0.546,-0.423 -1.214,-0.737 -1.965,-0.886 -0.791,-0.192 -1.5,-0.015 -2.06,0.463 -0.518,0.464 -0.941,1.255 -1.146,2.306 -0.232,1.023 -0.368,2.155 -0.395,3.356 -0.069,1.187 -0.11,2.483 -0.069,3.888 M 93.356,25.349 93.438,50.138 76.248,46.48 v -4.079 l 1.46,0.341 c 0.696,0.151 1.269,0.246 1.76,0.274 0.491,0.054 0.941,0 1.296,-0.178 0.355,-0.15 0.628,-0.409 0.846,-0.805 0.218,-0.341 0.437,-0.86 0.559,-1.542 0.014,-0.095 0.082,-0.245 0.082,-0.464 0,-0.217 0.028,-0.491 0.041,-0.777 0,-0.341 0.027,-0.641 0.068,-0.982 v -0.996 -14.23 c 0,-1.923 0.014,-3.629 0.137,-5.129 0.15,-1.501 0.286,-2.797 0.505,-3.819 0.491,-2.361 1.637,-4.038 3.369,-5.034 1.76,-1.011 4.039,-1.229 6.822,-0.643 1.337,0.302 2.523,0.684 3.547,1.215 1.037,0.518 1.937,1.105 2.783,1.773 0.805,0.697 1.528,1.433 2.142,2.169 0.627,0.792 1.132,1.515 1.569,2.224 l -2.251,2.115 c -0.724,-0.71 -1.337,-1.283 -1.924,-1.747 -0.573,-0.382 -1.255,-0.668 -2.019,-0.832 -0.778,-0.177 -1.446,0 -2.033,0.464 -0.559,0.491 -0.955,1.256 -1.173,2.319 -0.205,1.01 -0.328,2.129 -0.369,3.343 -0.095,1.159 -0.109,2.496 -0.109,3.889 m 0.846,34.856 c 0.246,0.859 0.246,1.733 0.041,2.783 -0.191,0.778 -0.505,1.446 -0.9,1.992 -0.451,0.504 -1.01,0.874 -1.597,1.146 -0.6,0.3 -1.282,0.409 -2.005,0.464 -0.737,0 -1.487,-0.082 -2.265,-0.246 -0.914,-0.177 -1.746,-0.49 -2.51,-0.914 -0.805,-0.367 -1.405,-0.901 -1.924,-1.501 -0.518,-0.6 -0.886,-1.35 -1.105,-2.183 -0.218,-0.805 -0.218,-1.759 0.028,-2.837 0.163,-0.763 0.464,-1.378 0.9,-1.883 0.382,-0.532 0.887,-0.886 1.446,-1.187 0.601,-0.259 1.255,-0.423 1.965,-0.477 0.723,-0.028 1.514,0.054 2.305,0.218 0.846,0.205 1.692,0.491 2.497,0.914 0.764,0.409 1.432,0.928 1.951,1.555 0.559,0.614 0.928,1.351 1.173,2.156 m 35.907,-15.307 c 6.099,1.46 6.945,7.286 6.099,9.727 -2.088,5.962 -10.983,6.494 -15.935,-0.846 -3.124,-4.515 -3.233,-8.499 -3.233,-9.031 l -0.273,10.355 -16.33,-3.465 0.013,-4.079 1.488,0.34 c 1.364,0.3 2.387,0.3 3.069,0.028 0.682,-0.245 1.091,-0.832 1.282,-1.76 0.123,-0.532 0.219,-1.119 0.232,-1.801 0.028,-0.696 0.028,-1.227 0.041,-1.678 V 12.005 l 10.914,2.361 0.137,13.193 c 0.068,6.397 0.709,12.359 2.06,16.739 1.187,3.86 2.947,6.467 5.375,7.025 4.079,0.969 5.061,-6.425 5.061,-6.425"
             style="fill:#000000;fill-opacity:1;fill-rule:nonzero;stroke:none"
             id="path917"
             inkscape:connector-curvature="0" /></g><g
           id="g919"
           transform="translate(138.8662,197.1084)"><path
             d="m 0,0 v 13.684 c 0,11.35 5.73,16.944 7.981,17.256 0.723,0.111 1.391,0.056 2.019,-0.258 0.587,-0.369 1.119,-0.873 1.542,-1.541 0.463,-0.669 0.845,-1.487 1.2,-2.388 0.328,-0.914 0.573,-1.883 0.805,-2.851 0.246,-1.392 0.464,-2.933 0.573,-4.598 0.096,-1.678 0.096,-3.383 -0.068,-5.143 C 13.929,12.415 13.67,10.682 13.261,9.018 12.892,7.326 12.36,5.812 11.719,4.407 11.051,3.001 10.232,1.896 9.291,0.899 8.281,-0.027 7.162,-0.641 5.839,-0.914 5.28,-1.05 4.748,-1.105 4.134,-1.05 3.602,-1.05 3.097,-1.01 2.592,-0.9 2.101,-0.832 1.664,-0.668 1.269,-0.519 0.832,-0.327 0.232,-0.15 0,0"
             style="fill:#000000;fill-opacity:1;fill-rule:nonzero;stroke:none"
             id="path921"
             inkscape:connector-curvature="0" /></g><g
           id="g923"
           transform="translate(98.2656,247.5859)"><path
             d="m 0,0 c -0.505,-0.136 -0.955,-0.191 -1.419,-0.259 0.068,-0.45 0.109,-0.955 0.178,-1.446 0.081,-0.505 0.177,-0.941 0.286,-1.365 0.6,-2.837 1.719,-4.869 3.302,-6.139 1.65,-1.228 3.792,-1.582 6.439,-1.023 1.173,0.273 2.265,0.655 3.247,1.242 1.023,0.573 1.91,1.2 2.66,1.978 0.832,0.736 1.514,1.541 2.074,2.401 0.6,0.832 1.023,1.732 1.432,2.565 0.355,-0.314 0.641,-0.723 0.942,-1.242 0.272,-0.546 0.491,-1.078 0.613,-1.705 0.164,-0.914 0.082,-1.897 -0.272,-2.961 -0.341,-1.105 -1.051,-2.182 -2.033,-3.26 -0.982,-1.078 -2.347,-2.047 -4.038,-2.961 -1.706,-0.927 -3.766,-1.664 -6.249,-2.155 -2.223,-0.505 -4.379,-0.628 -6.453,-0.437 -2.128,0.205 -4.024,0.805 -5.757,1.692 -1.719,0.955 -3.233,2.292 -4.515,3.984 -1.228,1.732 -2.101,3.833 -2.647,6.357 -0.368,1.855 -0.532,3.765 -0.45,5.866 0.041,2.088 0.354,4.175 0.873,6.249 0.559,2.073 1.337,4.12 2.346,6.098 1.051,2.005 2.347,3.861 3.888,5.525 1.515,1.665 3.384,3.111 5.444,4.366 2.101,1.214 4.529,2.128 7.19,2.674 3.451,0.723 6.316,0.545 8.526,-0.546 2.238,-1.119 3.602,-3.042 4.216,-5.757 0.395,-1.951 0.191,-3.984 -0.505,-6.003 C 18.609,11.692 17.49,9.795 15.88,8.008 14.216,6.221 12.196,4.679 9.714,3.315 7.231,1.937 4.434,0.914 1.323,0.286 0.914,0.177 0.491,0.082 0,0 m -1.514,9.577 c -0.26,-1.883 -0.3,-3.724 -0.26,-5.525 l 0.669,0.123 c 1.814,0.395 3.411,0.968 4.87,1.787 1.487,0.791 2.633,1.787 3.616,2.892 0.941,1.132 1.623,2.401 2.005,3.752 0.368,1.391 0.437,2.851 0.123,4.393 -0.328,1.5 -0.887,2.592 -1.678,3.301 -0.805,0.71 -1.76,0.942 -2.892,0.71 C 3.738,20.75 2.701,20.082 1.855,18.936 0.955,17.79 0.259,16.467 -0.341,14.87 -0.859,13.247 -1.269,11.501 -1.514,9.577"
             style="fill:#ffffff;fill-opacity:1;fill-rule:nonzero;stroke:none"
             id="path925"
             inkscape:connector-curvature="0" /></g><g
           id="g927"
           transform="translate(137.311,271.3379)"><path
             d="M 0,0 2.879,-1.31 C 1.446,-4.134 0.041,-8.486 0.041,-14.639 v -18.103 l -10.873,-2.32 v 30.383 c 0.041,0.341 0,0.641 0,1.009 0,0.341 -0.028,0.669 -0.028,0.955 -0.027,0.328 -0.027,0.587 -0.054,0.778 -0.027,0.245 -0.055,0.395 -0.068,0.491 -0.137,0.682 -0.3,1.2 -0.532,1.569 -0.246,0.368 -0.56,0.614 -0.928,0.791 -0.3,0.123 -0.737,0.205 -1.214,0.177 -0.491,-0.054 -1.119,-0.136 -1.787,-0.286 L -16.944,0.491 V 4.57 l 16.521,3.479 z"
             style="fill:#ffffff;fill-opacity:1;fill-rule:nonzero;stroke:none"
             id="path929"
             inkscape:connector-curvature="0" /></g><g
           id="g931"
           transform="translate(89.7529,209.9189)"><path
             d="m 0,0 c -0.368,1.828 -0.341,3.493 0.123,5.075 0.45,1.569 1.296,3.042 2.51,4.338 1.201,1.323 2.769,2.441 4.639,3.411 1.95,0.941 4.16,1.76 6.684,2.278 2.47,0.519 4.516,0.764 6.331,0.737 1.746,-0.014 3.233,-0.246 4.406,-0.682 1.187,-0.368 2.074,-0.941 2.729,-1.678 0.6,-0.737 1.05,-1.555 1.214,-2.457 C 29.059,9.1 28.609,7.544 27.312,6.33 26.03,5.13 24.066,4.27 21.473,3.711 21.282,4.707 20.982,5.647 20.573,6.603 20.205,7.558 19.7,8.362 19.1,9.1 c -0.628,0.682 -1.351,1.213 -2.17,1.595 -0.804,0.327 -1.746,0.409 -2.769,0.192 C 13.22,10.695 12.401,10.382 11.678,9.918 11.023,9.481 10.464,9.004 10.014,8.417 9.577,7.857 9.318,7.217 9.168,6.521 9.031,5.866 9.031,5.157 9.127,4.446 9.318,3.655 9.645,2.974 10.041,2.441 c 0.45,-0.531 1.064,-0.968 1.855,-1.363 0.819,-0.369 1.747,-0.71 2.879,-0.97 1.16,-0.313 2.51,-0.64 4.052,-0.996 1.705,-0.382 3.206,-0.817 4.502,-1.39 1.31,-0.587 2.442,-1.201 3.383,-2.006 0.942,-0.805 1.665,-1.692 2.279,-2.715 0.586,-1.036 1.05,-2.251 1.309,-3.574 0.45,-1.965 0.45,-3.834 0,-5.593 -0.395,-1.692 -1.228,-3.275 -2.483,-4.694 -1.268,-1.406 -2.933,-2.619 -5.007,-3.669 -2.073,-1.051 -4.556,-1.857 -7.462,-2.511 -2.06,-0.45 -3.997,-0.668 -5.771,-0.668 -1.773,0 -3.315,0.218 -4.652,0.668 -1.31,0.436 -2.428,1.092 -3.274,1.965 -0.846,0.818 -1.446,1.895 -1.706,3.179 -0.191,1.131 -0.191,2.168 0.069,3.015 0.313,0.9 0.791,1.637 1.405,2.319 0.6,0.6 1.337,1.131 2.251,1.569 0.818,0.435 1.801,0.736 2.728,0.955 0.301,-1.324 0.683,-2.524 1.16,-3.685 0.546,-1.131 1.187,-2.113 1.965,-2.891 0.736,-0.805 1.609,-1.365 2.633,-1.693 1.036,-0.367 2.21,-0.408 3.519,-0.094 0.983,0.204 1.883,0.546 2.702,0.955 0.777,0.423 1.446,0.927 1.937,1.541 0.546,0.587 0.914,1.268 1.119,2.006 0.204,0.778 0.204,1.582 0.013,2.468 -0.164,0.832 -0.477,1.516 -0.914,2.102 -0.436,0.559 -1.064,1.078 -1.883,1.515 -0.777,0.395 -1.732,0.763 -2.878,1.077 -1.146,0.314 -2.483,0.681 -4.093,1.05 -1.542,0.396 -2.96,0.833 -4.256,1.351 C 6.139,-7.831 4.98,-7.19 3.984,-6.412 2.988,-5.634 2.142,-4.748 1.446,-3.711 0.805,-2.647 0.286,-1.419 0,0"
             style="fill:#ffffff;fill-opacity:1;fill-rule:nonzero;stroke:none"
             id="path933"
             inkscape:connector-curvature="0" /></g><g
           id="g935"
           transform="translate(245.6333,250.3145)"><path
             d="M 0,0 C 0.941,0.191 1.855,0.191 2.81,0.082 3.697,-0.096 4.447,-0.45 5.075,-1.023 v -12.688 c 0,-2.06 -0.205,-4.12 -0.573,-6.194 -0.396,-2.06 -0.955,-3.942 -1.61,-5.675 -0.668,-1.732 -1.5,-3.179 -2.442,-4.352 -0.927,-1.132 -1.951,-1.855 -3.001,-2.101 -0.532,-0.082 -1.105,-0.068 -1.678,0.068 -0.491,0.164 -0.996,0.505 -1.474,0.983 -0.477,0.504 -0.886,1.214 -1.268,2.101 -0.437,0.941 -0.778,2.073 -1.037,3.492 -0.287,1.392 -0.505,2.892 -0.6,4.584 -0.096,1.678 -0.096,3.438 0.027,5.225 0.15,1.801 0.409,3.547 0.791,5.239 0.382,1.733 0.914,3.329 1.61,4.788 0.682,1.419 1.542,2.633 2.537,3.616 C -2.633,-0.955 -1.419,-0.286 0,0"
             style="fill:#000000;fill-opacity:1;fill-rule:nonzero;stroke:none"
             id="path937"
             inkscape:connector-curvature="0" /></g><g
           id="g939"
           transform="translate(137.311,271.3379)"><path
             d="m 0,0 c 0,0 2.701,7.217 8.499,10.191 1.296,0.6 2.729,1.091 4.339,1.433 1.487,0.313 2.837,0.368 4.011,0.122 1.159,-0.232 2.128,-0.668 2.933,-1.296 0.791,-0.614 1.432,-1.419 1.937,-2.346 0.518,-0.969 0.859,-2.019 1.078,-3.124 0.15,-0.601 0.259,-1.283 0.3,-2.006 0.054,-0.723 0.109,-1.419 0.123,-2.183 0.027,-0.736 0.027,-1.473 0.027,-2.237 v -2.115 l 0.041,-8.158 c -0.041,-1.392 0,-2.701 0.068,-3.888 0.014,-1.187 0.205,-2.442 0.423,-3.465 0.218,-1.051 0.832,-1.869 1.364,-2.347 0.56,-0.464 1.228,-0.627 2.06,-0.464 0.792,0.15 1.419,0.464 1.992,0.901 0.205,0.122 0.437,0.273 0.628,0.45 l 1.76,-2.92 c -0.601,-0.805 -1.31,-1.487 -2.129,-2.169 -0.832,-0.655 -1.773,-1.255 -2.796,-1.787 -1.037,-0.532 -2.251,-0.955 -3.561,-1.201 -2.81,-0.614 -5.075,-0.395 -6.821,0.601 -1.747,1.037 -2.893,2.7 -3.397,5.048 -0.396,2.1 -0.614,5.088 -0.614,8.949 l -0.041,6.044 v 1.814 c 0,0.723 -0.055,1.501 -0.055,2.265 -0.027,0.777 -0.041,1.541 -0.123,2.319 0,0.737 -0.122,1.446 -0.191,2.06 -0.15,0.464 -0.286,0.928 -0.45,1.378 C 11.228,2.387 10.969,2.81 10.628,3.165 10.355,3.52 9.973,3.779 9.536,3.956 9.086,4.134 8.568,4.134 7.885,4.025 7.081,3.847 6.33,3.356 5.607,2.674 5.102,2.183 3.984,0.9 2.879,-1.31 Z"
             style="fill:#ffffff;fill-opacity:1;fill-rule:nonzero;stroke:none"
             id="path941"
             inkscape:connector-curvature="0" /></g><g
           id="g943"
           transform="translate(225.9741,245.6621)"><path
             d="m 0,0 c 0.846,-2.441 0,-8.267 -6.098,-9.727 0,0 -0.983,7.394 -5.062,6.425 -2.428,-0.558 -4.188,-3.165 -5.375,-7.025 l -2.633,0.395 v 0.055 c 0,0.532 0.109,4.515 3.233,9.031 C -10.982,6.494 -2.087,5.962 0,0"
             style="fill:#ffffff;fill-opacity:1;fill-rule:nonzero;stroke:none"
             id="path945"
             inkscape:connector-curvature="0" /></g></g></g><text
       transform="scale(0.94869897,-1.0540751)"
       style="font-variant:normal;font-weight:200;font-stretch:normal;font-size:59.32927322px;font-family:'Qanelas Soft DEMO UltraLight';-inkscape-font-specification:QanelasSoftDEMO-UltraLight;writing-mode:lr-tb;fill:#ffffff;fill-opacity:1;fill-rule:nonzero;stroke:none;stroke-width:1.5612967"
       id="text949"
       x="353.39871"
       y="-150.79666"><tspan
         x="353.39871 403.05731 452.12262 512.22314 561.4071 610.65039 639.3064 683.80341 729.07172 754.16791 795.52045 836.27966"
         y="-150.79666"
         sodipodi:role="line"
         id="tspan947"
         style="stroke-width:1.5612967">HUMAN SKILLS</tspan></text>
<g
       id="g951"
       transform="matrix(1,0,0,1.4133274,310.15295,156.60354)"><path
         d="M 0,0 V 108.333"
         style="fill:none;stroke:#ffffff;stroke-width:3;stroke-linecap:butt;stroke-linejoin:miter;stroke-miterlimit:10;stroke-dasharray:none;stroke-opacity:1"
         id="path953"
         inkscape:connector-curvature="0" /></g></g></svg>